<svg xmlns="http://www.w3.org/2000/svg" width="283" height="289" viewBox="0 0 283 289" version="1.1">
	<path d="M 222 9.500 L 222 19 242.980 19 L 263.961 19 264.230 40.750 L 264.500 62.500 273.750 62.788 L 283 63.075 283 31.538 L 283 0 252.500 0 L 222 0 222 9.500 M 64.255 44.782 L 14.011 73.500 14.255 131.354 L 14.500 189.207 91 233.118 C 133.075 257.269, 168.175 276.848, 169 276.628 C 169.825 276.408, 192.325 263.662, 219 248.303 L 267.500 220.380 267.714 162.440 L 267.927 104.500 191.791 60.500 C 149.916 36.300, 115.394 16.402, 115.077 16.282 C 114.760 16.162, 91.890 28.987, 64.255 44.782 M 82.909 76.682 L 52.318 94.246 51.641 129.819 C 51.105 157.958, 51.228 165.645, 52.231 166.602 C 53.406 167.724, 165.902 233, 166.660 233 C 166.847 233, 167 217.025, 167 197.500 C 167 175.936, 167.370 162, 167.943 162 C 168.461 162, 182.524 169.823, 199.193 179.384 L 229.500 196.768 230.246 175.634 C 230.657 164.010, 230.882 148.002, 230.746 140.060 L 230.500 125.620 173 92.335 C 141.375 74.028, 115.050 59.066, 114.500 59.084 C 113.950 59.103, 99.734 67.022, 82.909 76.682 M 0.236 257.250 L 0.500 288.500 31.250 288.764 L 62 289.029 62 279.014 L 62 269 40.500 269 L 19 269 19 247.500 L 19 226 9.486 226 L -0.028 226 0.236 257.250" stroke="none" fill="black" fill-rule="evenodd"/>
</svg>