<?xml version="1.0" standalone="no"?>
<!DOCTYPE svg PUBLIC "-//W3C//DTD SVG 20010904//EN"
 "http://www.w3.org/TR/2001/REC-SVG-20010904/DTD/svg10.dtd">
<svg version="1.0" xmlns="http://www.w3.org/2000/svg"
 width="701.000000pt" height="701.000000pt" viewBox="0 0 701.000000 701.000000"
 preserveAspectRatio="xMidYMid meet">
<metadata>
Created by potrace 1.14, written by Peter Selinger 2001-2017
</metadata>
<g transform="translate(0.000000,701.000000) scale(0.100000,-0.100000)"
fill="#000000" stroke="none">
<path d="M4647 7003 c-3 -5 -4 -126 -4 -270 0 -233 2 -263 16 -264 9 0 285 -1
614 -1 l597 -1 0 -623 0 -624 50 -1 c28 0 131 0 230 0 99 0 199 0 223 0 l42 1
0 893 0 892 -882 3 c-485 1 -884 -1 -886 -5z"/>
<path d="M2155 6080 c-401 -231 -757 -435 -790 -453 -33 -19 -76 -43 -95 -54
-19 -11 -96 -55 -170 -98 -74 -42 -151 -86 -170 -97 -19 -12 -51 -29 -70 -40
-19 -11 -87 -49 -150 -86 l-115 -67 -2 -70 c-1 -73 -5 -2429 -4 -2525 l1 -55
62 -35 c35 -19 88 -49 118 -67 30 -17 66 -38 80 -45 25 -14 905 -519 1074
-617 49 -28 90 -51 92 -51 1 0 39 -22 83 -50 45 -27 82 -49 84 -48 1 1 13 -5
27 -14 22 -14 529 -305 605 -348 40 -22 156 -89 175 -100 28 -16 528 -303 590
-338 25 -14 88 -50 140 -80 327 -189 406 -232 418 -227 8 3 78 42 156 86 77
45 155 90 171 99 113 65 604 347 765 440 107 62 211 121 230 132 58 33 445
255 605 348 83 48 193 111 245 140 52 29 97 55 99 57 2 1 5 598 7 1326 l2
1323 -146 84 c-80 47 -166 97 -191 111 -124 71 -278 160 -291 169 -8 6 -22 13
-30 17 -8 4 -32 17 -53 30 -21 13 -55 33 -75 45 -20 11 -152 87 -292 168 -140
81 -271 157 -290 168 -19 10 -134 77 -255 147 -121 70 -233 136 -250 145 -16
10 -390 225 -829 480 -439 254 -806 464 -815 466 -9 2 -344 -185 -746 -416z
m1210 -815 c716 -414 929 -538 965 -558 19 -11 49 -28 65 -38 17 -11 37 -22
45 -26 12 -6 182 -103 250 -143 8 -5 51 -30 95 -56 44 -26 100 -58 125 -72 25
-14 156 -90 292 -169 136 -78 263 -152 283 -163 20 -11 46 -27 59 -35 l22 -15
-1 -820 c-1 -451 -5 -823 -7 -826 -5 -4 -83 38 -198 106 -13 8 -227 130 -318
182 -18 10 -93 53 -165 95 -73 42 -152 87 -177 101 -44 24 -273 157 -474 273
-55 32 -103 56 -107 54 -3 -3 -7 -374 -8 -827 -1 -452 -3 -823 -4 -824 -2 -1
-719 412 -812 468 -11 6 -105 61 -210 121 -104 60 -201 117 -215 125 -14 9
-27 17 -30 17 -3 0 -16 8 -30 17 -25 16 -122 72 -195 113 -23 13 -193 111
-379 219 -186 108 -342 196 -347 196 -5 0 -9 5 -9 10 0 6 -5 10 -11 10 -6 0
-56 27 -111 60 -54 33 -101 60 -103 60 -3 0 -207 119 -213 125 -2 2 -3 250 -2
552 1 301 2 673 3 826 l0 279 36 23 c28 18 906 522 1116 640 22 13 99 56 170
97 l130 74 30 -16 c17 -10 215 -124 440 -255z"/>
<path d="M611 1798 c-18 -6 -18 -47 -19 -897 0 -490 3 -891 6 -892 4 0 400 -1
880 -2 574 -1 876 1 880 8 4 6 7 128 7 272 l1 263 -31 1 c-16 0 -293 1 -615 2
l-585 2 0 623 c0 616 0 622 -20 622 -174 5 -491 3 -504 -2z"/>
</g>
</svg>
