<svg xmlns="http://www.w3.org/2000/svg" width="176.1" height="176.1" viewBox="0 0 176.1 176.1"><title>Mouse</title><circle cx="88" cy="88" r="88" fill="#f1e3c3"/><path d="M162.6,123.4a28.3,28.3,0,0,0-1.1-3.1c-.5-1-.7-4.3,1.1-5.5a9.3,9.3,0,0,1,9.5.2,18.9,18.9,0,0,1,5.8,5.8c.6,1.1,2.5,5.2,2.3,7.1s-9.8,1.7-9.8,1.7l-6.6,1.2Z" transform="translate(-48.6 -39.3)" fill="#9f8f75"/><path d="M143.4,139.5a76.6,76.6,0,0,0-11.7-.7c-8.3.2-19.5,3.6-29.8,13.2C89,163.9,86.4,181.9,88.1,189.4c2.1,9.7,5.7,9.3,6.1,13.5s2.7,4.8,11.8,5.6c11.3,1,21.7,3.1,27.1,1.5s3.8-5.8,2-7-5-.8-5-.8,11.7-2.7,15.9-4.6,13.3-6,20.4-5.4c10.2.7,21.7,12.4,24,13.5s12.5,1.7,15.5.9,3.9-4.5.1-6.6-8.1-1.1-10-1.7-10.5-8.8-15.3-18.6.1-19.2.1-19.2,13.4,1,21.9-3.5,12.2-10.5,13.6-15.9-.9-8.2-2.8-8.8-23.1-5.6-32.7-5.5-16.8,1.8-21.5,6.4a11.1,11.1,0,0,0-3.6,6.6S148.5,139.9,143.4,139.5Z" transform="translate(-48.6 -39.3)" fill="#c3b294"/><path d="M202.7,157a29.7,29.7,0,0,0,12.5-12.8,92.8,92.8,0,0,1-18.7,6.8c-7.1,1.8-17.2.9-22.7,3.4-2.6,1.1-3.3,7.7-1.9,12.5a82.4,82.4,0,0,1,2.1,9.6c.2,2.4-.5,4.9-2.5,6.1s-12.9-1-12.9-1h0q-3.2-.7-6.3-1.2c-8.5-.8-14,.8-22.7,5.2s-11.8,14.6-19.2,15.7a88.6,88.6,0,0,1-16.3.8,1.7,1.7,0,0,1,.1.7c.4,4.3,2.7,4.8,11.8,5.6,11.3,1,21.7,3.2,27.1,1.6s3.8-5.8,2-7-5-.8-5-.8,11.7-2.7,15.9-4.6,13.3-6,20.4-5.5h.2c9.4.8,20,10.9,23.2,13.2h.1l.2.2h0l.3.2.6.2h.2l.5.2H194a12.4,12.4,0,0,0,2.7.3h0a35.3,35.3,0,0,0,9.2-.3c3-.8,3.9-4.6.1-6.7s-8.1-1.1-10-1.7-9.3-7.7-14.2-16.6h0a18.6,18.6,0,0,1-1-2,3.6,3.6,0,0,1-.4-.9l-.2-.3a1.4,1.4,0,0,0-.2-.6.4.4,0,0,1-.1-.3l-.2-.5v-.4l-.2-.5a.8.8,0,0,0-.1-.4.6.6,0,0,0-.1-.4V174c-.1-.1,0-.3-.1-.4v-1.2c-.1-.2,0-.2,0-.3a12.2,12.2,0,0,1,0-2.7h0v-.7h0V168h0a1.3,1.3,0,0,1,.1-.6h0a24.4,24.4,0,0,1,2-7S194.2,161.5,202.7,157Z" transform="translate(-48.6 -39.3)" fill="#dad1c2"/><path d="M130.9,202s-7.3,1.6-8.9,1.8c-3.6.4-8.3.6-10,.6s-10.8-.9-11.8-.9-3.8-.5-6-.4c.5,4,2.9,4.6,11.8,5.3,11.3,1,21.7,3.2,27.1,1.6s3.8-5.8,2-7-5-.8-5-.8l.8-.2Z" transform="translate(-48.6 -39.3)" fill="#f1cbcb"/><path d="M206.1,199.9c-2.6-1.4-7.7-1.1-9.8-1.6l-3.2,3.7a25,25,0,0,0-2.3,3.9h3.3l2.6.3h0a41.4,41.4,0,0,0,9.3-.4C209,205.8,209.9,202.1,206.1,199.9Z" transform="translate(-48.6 -39.3)" fill="#f1cbcb"/><path d="M170.5,198.8c-2-.3-7.5.3-8.1.3l-1.2-.2a31.2,31.2,0,0,1-.9-4.4,10.9,10.9,0,0,0-.1-1.9,56.5,56.5,0,0,0-11.2,3.7,33.9,33.9,0,0,1,3.3,4.2c1,1.8,2.4,4.7,5.7,5.1s11,1.7,13,.7,3-2,3-3.6A4.2,4.2,0,0,0,170.5,198.8Z" transform="translate(-48.6 -39.3)" fill="#c5bdb2"/><path d="M157.9,205.6c3.3.4,11,1.7,13,.7s3-2,3-3.6a4.1,4.1,0,0,0-3.4-3.9c-2-.3-7.5.3-8.1.3l-1.3-.2-7.2,4.4A5.9,5.9,0,0,0,157.9,205.6Z" transform="translate(-48.6 -39.3)" fill="#f1cbcb"/><path d="M170.4,137.9s.8-9.4-6.6-14.5-11.9-4.3-16.8,2.3-5.5,15.1.5,21.6c4.3,4.8,9,6,13.6,3.4s8-7.7,8.4-8.5A16.5,16.5,0,0,0,170.4,137.9Z" transform="translate(-48.6 -39.3)" fill="#f1cbcb"/><path d="M169.1,137.7s-1.2-6.9-6.7-7.7-10.1,2.4-10.1,7.6,2.3,8.3,6.7,9,9.1-3.5,9.8-4.2S169.1,137.7,169.1,137.7Z" transform="translate(-48.6 -39.3)" fill="#e9baba"/><polygon points="122.9 98.4 118.2 94.5 118.3 97.7 113.8 97.9 117.2 100.3 114.1 103.5 117.5 104.2 117.8 106.8 121.8 103.8 122.9 98.4" fill="#c3b294"/><ellipse cx="135.9" cy="100" rx="2" ry="3" fill="#f1f1f1"/><path d="M213.6,132.3c-1.6,1-2.8,2.5-2.7,3.3a6,6,0,0,0,2.6,4.3c.8.5,2.3,1,2.8,1.3h.1C217.9,135.1,215.6,132.9,213.6,132.3Z" transform="translate(-48.6 -39.3)" fill="#e9baba" fill-rule="evenodd"/><circle cx="160.5" cy="100.7" r="0.5" fill="#9f8f75"/><circle cx="162.5" cy="102.5" r="0.5" fill="#9f8f75"/><circle cx="159.6" cy="103.4" r="0.5" fill="#9f8f75"/><circle cx="161.8" cy="104.8" r="0.5" fill="#9f8f75"/><circle cx="157.5" cy="101.8" r="0.5" fill="#9f8f75"/><circle cx="159" cy="106.2" r="0.5" fill="#9f8f75"/><path d="M88.1,189.4s-13.7,0-19.7-5.4a26,26,0,0,1-8-21.7c1-7.4,4.5-17.3,13.3-21.5s12.8-4.9,18.5-7.8c8.7-4.4,13.6-12,14.3-18.3s.6-16.6-12.4-19.9-17.4,9.5-17.4,9.5l-2.5,6.3s4.9-9.7,10.5-11.2,12.5-.6,14.6,6a18.4,18.4,0,0,1-10.2,22.5c-9,4.2-23.4,7-28.8,15.3s-11,20.6-6,32.7,14.1,19.6,20,21.2,7.6,2.6,17.5,1h0A20.5,20.5,0,0,1,88.1,189.4Z" transform="translate(-48.6 -39.3)" fill="#e9baba" fill-rule="evenodd"/><path d="M142.8,141.8a2.5,2.5,0,0,1-1.4.8h-1.3l-2.5-.4h-5a37.2,37.2,0,0,0-10,1.4,38.3,38.3,0,0,0-9.4,3.7,30.7,30.7,0,0,0-4.3,2.6l-2,1.5c-.7.6-1.4,1-2,1.6a55.1,55.1,0,0,0-7,7.5,38.2,38.2,0,0,0-5.1,8.7,27.7,27.7,0,0,0-1.3,19.2l.9,2.2,1.1,2.4,2.3,4.8.6,1.2.2.4c.1.2.1.4.2.6a3.6,3.6,0,0,1,.2,1v1.4a6.5,6.5,0,0,1,.2,1.1,1.7,1.7,0,0,0,.6,1,3.3,3.3,0,0,0,1.3.7,27.8,27.8,0,0,0,4.9.8l5.3.7,10.6,1,5.2.3a44.6,44.6,0,0,0,5.1.1h1.1l.4-.2a5.8,5.8,0,0,0,1.5-1.1,1.7,1.7,0,0,0,.7-1v.6h0a3.5,3.5,0,0,0-.5-.8,1.5,1.5,0,0,0-.9-.4h-1.6l-5.3.6a29.7,29.7,0,0,1-11.1-.9c3.6-1,6.8-2.2,10.2-3.4a51.6,51.6,0,0,1,5.2-1.6l1.7-.3,2,.2a6.4,6.4,0,0,1,3.6,2.4,7.1,7.1,0,0,1,1,1.4h.2c0,.2.1.3.2.5a2.4,2.4,0,0,1,.2.9,3.8,3.8,0,0,1,0,1.5,7.6,7.6,0,0,1-2,3.6,10.5,10.5,0,0,1-2.7,2l-.8.4h-.5l-.6.2h-7.4l-5.4-.4-10.8-1.1-5.3-.6-2.7-.4H99.4l-1.5-.4a9.6,9.6,0,0,1-3.3-1.8,7.2,7.2,0,0,1-2-3.6,13.1,13.1,0,0,1-.3-1.5v-1.3c-.1-.5,0-.1-.2-.6l-.6-1.2c-.8-1.6-1.5-3.2-2.3-4.9l-1.1-2.4c-.4-.9-.8-1.8-1.1-2.7a30.6,30.6,0,0,1-1.4-11.6,38.5,38.5,0,0,1,2.8-11.1,45.6,45.6,0,0,1,5.7-9.8,65.9,65.9,0,0,1,7.6-8.2l2.2-1.8,2.3-1.7a49.7,49.7,0,0,1,15.3-7.1,47.3,47.3,0,0,1,11.2-1.6h2.8l2.8.2a13.2,13.2,0,0,1,2.8.2,5.8,5.8,0,0,1,1.4.3,1.8,1.8,0,0,1,.7.5,4.1,4.1,0,0,1,.5.9Z" transform="translate(-48.6 -39.3)" fill="#4f4f4f"/><path d="M167.5,146.8a28.6,28.6,0,0,1-3.6,4.1,10.8,10.8,0,0,1-2.4,1.8l-.8.4-.7.2-1.5.4a11.9,11.9,0,0,1-6.2-.5,14.4,14.4,0,0,1-5.2-3.1,20,20,0,0,1-3.9-4.3,15.1,15.1,0,0,1-2.4-5.7,17.3,17.3,0,0,1-.1-6c.1-.5.1-1,.2-1.4s.2-.9.3-1.5a22.3,22.3,0,0,1,4-7.8,15.6,15.6,0,0,1,4.7-4.2,8.9,8.9,0,0,1,3.5-1.1,18.4,18.4,0,0,1,9,1.4,16,16,0,0,1,5.1,3.5,12.2,12.2,0,0,1,2,2.5,12.6,12.6,0,0,1,1.3,2.6,21.8,21.8,0,0,1,1.3,11l-1.4.2c-1.6-3.2-2.8-6.4-4.3-9.1a12.8,12.8,0,0,0-1.1-2,10.1,10.1,0,0,0-1.3-1.6,13.4,13.4,0,0,0-3.6-2.2,12.9,12.9,0,0,0-4.2-1,16.1,16.1,0,0,0-2.2,0l-1.5.5a10,10,0,0,0-3,2.8,15.8,15.8,0,0,0-2.4,3.9,11.9,11.9,0,0,0-.8,2l-.3,1.1c-.1.4-.1.8-.2,1.2a12.4,12.4,0,0,0-.1,4.3,13.7,13.7,0,0,0,4.4,7.5c2.3,2.2,5,3.4,7.7,3l1.1-.2.6-.2h.3l2-1.1c1.4-.9,2.9-1.9,4.4-2.7Z" transform="translate(-48.6 -39.3)" fill="#4f4f4f"/><path d="M177,127.8c-.1-.3-.2-1-.4-1.5l-.6-1.6a21.9,21.9,0,0,0-1.6-3,17,17,0,0,0-2.2-2.4l-1.3-1a4.1,4.1,0,0,0-1.1-.7,5.2,5.2,0,0,0-2.7-.5,4,4,0,0,0-2.2.5l-.3.2h0a2.9,2.9,0,0,0-.2.9c.1,1.1.2,2.2.4,3.3l-2.4,1.5a8.5,8.5,0,0,1-2.6-4,7.6,7.6,0,0,1,0-3,6.5,6.5,0,0,1,.8-1.7l1.1-1.2a9.7,9.7,0,0,1,5.1-1.9,11.7,11.7,0,0,1,5,.8,17.1,17.1,0,0,1,2.3,1.3l1.8,1.4a23.4,23.4,0,0,1,2.9,3.5,21.4,21.4,0,0,1,2,4,10.4,10.4,0,0,1,.6,2.2,22.3,22.3,0,0,1,.4,2.3Z" transform="translate(-48.6 -39.3)" fill="#4f4f4f"/><path d="M168.8,129.4a87.7,87.7,0,0,1,11.4-1c5.2,0,20.3,1.7,25.9,3.2s6.2,2,6.2,2" transform="translate(-48.6 -39.3)" fill="none" stroke="#4f4f4f" stroke-miterlimit="10" stroke-width="5"/><path d="M217.6,141.2a48.8,48.8,0,0,1-2.3,6.4c-.5,1-1,2.1-1.6,3.1a16.6,16.6,0,0,1-2.2,3l-.4.4-.3.3-.6.6-1.4,1.2-2.9,2a22.6,22.6,0,0,1-6.6,2.8,31.3,31.3,0,0,1-6.8,1.2,48.5,48.5,0,0,1-6.6.1c-2.2,0-4.3-.2-6.4-.4a59.9,59.9,0,0,0-6.2-.5l-.3-.9a13.7,13.7,0,0,1,6.4-2.5,44.8,44.8,0,0,1,6.4-.7,48.3,48.3,0,0,0,11.9-1.8l2.7-1a14.1,14.1,0,0,0,2.4-1.3,18.8,18.8,0,0,0,2.3-1.6l1.1-.9.6-.5.2-.3.2-.2a10,10,0,0,0,1.6-2l1.5-2.6c.9-1.7,1.8-3.6,2.6-5.4Z" transform="translate(-48.6 -39.3)" fill="#4f4f4f"/><path d="M128.4,201.2c5.7-2.2,11.4-4.7,17-7.1,2.7-1.1,5.6-2.5,8.5-3.6a29.9,29.9,0,0,1,9.7-2.3h1.3l1.3.2,2.4.4a26.2,26.2,0,0,1,4.8,1.3,31.6,31.6,0,0,1,8.6,4.8l7.4,5.6,1.8,1.3.9.6.4.3h.7l1.1.2,2.2.2,4.5.2a29.5,29.5,0,0,0,4.2-.2h.3l-.3.3h.1a1.4,1.4,0,0,0,.1-.9.5.5,0,0,0-.3-.5,2.4,2.4,0,0,0-1.1-.6,15.8,15.8,0,0,0-3.8-.5l-2,.2a8.1,8.1,0,0,1-3.1-.1,6.7,6.7,0,0,1-1.8-.7l-.8-.5-.5-.4-1.8-1.7-3.3-3.4a49.9,49.9,0,0,1-5.9-7.8l-2.3-4.1c-.8-1.4-1.5-2.9-2.2-4.4a17.3,17.3,0,0,1-1.2-5.1v-1.4a7.1,7.1,0,0,1,.1-1.4,21.7,21.7,0,0,1,.4-2.5,36.7,36.7,0,0,1,3.3-9.1l3.6,1.4c-.8,2.9-1.6,5.8-2.1,8.6l-.3,2v1.9a12.4,12.4,0,0,0,.9,3.8,85.5,85.5,0,0,0,4.1,7.9,44.4,44.4,0,0,0,5.3,7c1,1.1,2,2.1,3.1,3.1a11.4,11.4,0,0,0,1.6,1.5l.3.3.2.2h4.4a18.9,18.9,0,0,1,5.3.8,10.8,10.8,0,0,1,3,1.6,5.9,5.9,0,0,1,1.8,3.5,7.8,7.8,0,0,1-.6,3.7,5.6,5.6,0,0,0-.5.8h-.1v.2l-.6.5-.4.2h-.3a5.5,5.5,0,0,1-1.7.5,42.1,42.1,0,0,1-5,.1l-4.8-.3-2.4-.2-1.2-.2H191l-.5-.2-.4-.2-.5-.4-1-.7-1.9-1.4-7.3-5.7a26.1,26.1,0,0,0-7.4-4.3,27.7,27.7,0,0,0-4.1-1.2l-2.2-.4-1-.2h-1a30.3,30.3,0,0,0-8.3,1.9c-2.8,1-5.5,2.4-8.5,3.5-5.8,2.2-11.7,3.9-17.6,5.9Z" transform="translate(-48.6 -39.3)" fill="#4f4f4f"/><path d="M159.3,191.5s-.1,6.4,1.2,7.9,6.4-.4,9-.2,4.3,2.3,4.1,3.8-2.5,2.8-4.4,2.8-10-.6-11.4-.8-3.6-3.2-5-5.2l-3.5-5.3" transform="translate(-48.6 -39.3)" fill="none" stroke="#4f4f4f" stroke-miterlimit="10" stroke-width="4"/><path d="M211.3,133.7c-1.1,1.3-.6,3.7,0,4.6a6.7,6.7,0,0,0,4,2.6c.8.2,1.3-1,1.5-2.4s-.1-4.4-1.4-5.2A3.3,3.3,0,0,0,211.3,133.7Z" transform="translate(-48.6 -39.3)" fill="none" stroke="#4f4f4f" stroke-miterlimit="10" stroke-width="3"/><path d="M89,189.5s-17.8.9-25.2-10.3-3-34.7,13.9-40.8c20.7-7.4,33.4-16.7,27-35-3.8-10.7-19.9-11.3-26.6-1.6a20.8,20.8,0,0,0-3.2,6.3c1.2-2.1,4.5-9,13.9-9.4,11.1-.4,13.9,11.4,11.5,17.7-3.1,8.3-7.6,11.2-24,16.7s-24.9,22.3-22.6,37.5a32,32,0,0,0,21.3,26c8,2.6,17.9.9,17.9.9" transform="translate(-48.6 -39.3)" fill="none" stroke="#4f4f4f" stroke-miterlimit="10" stroke-width="4"/><path d="M182,136.4c-1.4,1.4-1.8,5.3.9,6.6a4.7,4.7,0,0,0,5.9-1.3c1.7-1.9,1.6-4.7.7-5.5S185.1,133.2,182,136.4Zm2,2.2a1.3,1.3,0,0,1,1.6.7,1.3,1.3,0,0,1-.8,1.6,1.2,1.2,0,0,1-1.6-.8A1.2,1.2,0,0,1,184,138.6Z" transform="translate(-48.6 -39.3)" fill="#444242" fill-rule="evenodd"/></svg>