<svg xmlns="http://www.w3.org/2000/svg" width="274.7" height="246.6" viewBox="0 0 274.7 246.6"><title>PeanutButter</title><rect width="274.7" height="246.65" fill="none"/><polygon points="118.4 103 110.1 102.2 109.5 111.3 173.1 111.3 172 102.2 156.4 105.3 125.9 105.3 118.4 103" fill="#7eb4c1"/><ellipse cx="140.6" cy="118.6" rx="47.5" ry="13.3" fill="#ad8f5a"/><path d="M130.8,127.9c5.2.5,15.1-4.9,20.3-3.8s7.3,3.9,10.2,3.5,7.3-2.3,10.9-3.7,7.6-.7,9-1.4l6.2-3.1,1,3.9-.3,60.7-4.7,7.4-31,7.4-28.9-.9-19.2-3.8-9.4-4.7L93.1,187l-.4-4.5.4-60.2,1-3.9s5.2-1.4,7.3,0,6.9,5.7,10,5.8,6.5-1.8,7.6-.9S126.9,127.5,130.8,127.9Z" fill="#baa37f"/><path d="M109.2,101.8s1.4,5.6-.7,8.2-10.9,9.5-10.9,12.7v62.1s10.5,8.9,39.7,8.9,45.9-8.3,45.9-8.3v-62c0-4.3-10.7-11.3-11.1-13a83.3,83.3,0,0,1-.8-8.6" fill="none" stroke="#9acbd8" stroke-miterlimit="10" stroke-width="4"/><path d="M102.1,82.4V95.2s.2,11,38.5,10.8S179,95.2,179,95.2V82.4s-1-10.8-38.4-10.8S102.1,82.4,102.1,82.4Z" fill="#db6449"/><rect x="109.5" y="90.9" width="1.9" height="10.86" fill="#b74e3d"/><rect x="115.2" y="93.1" width="2.2" height="10.14" fill="#b74e3d"/><rect x="120.2" y="94.7" width="2.2" height="10.14" fill="#b74e3d"/><rect x="127" y="95.2" width="2.2" height="10.14" fill="#b74e3d"/><rect x="136.3" y="95.8" width="2.2" height="10.14" fill="#b74e3d"/><rect x="145.5" y="95.8" width="2.2" height="10.14" fill="#b74e3d"/><rect x="152.3" y="95.2" width="2.2" height="10.14" fill="#b74e3d"/><rect x="158.4" y="94.1" width="2.2" height="10.14" fill="#b74e3d"/><rect x="164" y="93.1" width="2.2" height="10.14" fill="#b74e3d"/><rect x="168.6" y="91.3" width="2.2" height="10.14" fill="#b74e3d"/><rect x="173.6" y="89.1" width="2.2" height="10.14" fill="#b74e3d"/><rect x="105.6" y="89.1" width="2.2" height="10.14" fill="#b74e3d"/><path d="M178.6,131.1c-8.7,3.2-22.5,5.3-38,5.3a143.1,143.1,0,0,1-29.2-2.8v45.1h0a142.7,142.7,0,0,0,29.1,2.7c15.6,0,29.4-2,38.1-5.2Z" fill="#db6449"/><path d="M114.7,190.6V128.3c0-8,8.2-13.7,8.2-18.2v-4.8l-.4-.4h-2.3l-15.4-5.6-.3,7.5L93.1,118.6,91.9,149l.8,40.5,16.1,7,5.9.8Z" opacity="0.16" style="isolation:isolate"/><ellipse cx="140.6" cy="83.4" rx="38.4" ry="10.7" fill="none" stroke="#4f4f4f" stroke-miterlimit="10" stroke-width="6"/><path d="M102.1,82.4V95.2s.2,11,38.5,10.8S179,95.2,179,95.2V82.4s-1-10.8-38.4-10.8S102.1,82.4,102.1,82.4Z" fill="none" stroke="#4f4f4f" stroke-miterlimit="10" stroke-width="6"/><path d="M176.2,105.1v-5c2.7-2.1,2.8-3.9,2.8-3.9V83.4s-1-10.8-38.4-10.8-38.4,10.8-38.4,10.8V96.2s0,1.9,2.8,4.1v4.8c0,4.5-12.3,10.2-12.3,18.2v62.3h0c.7,7.2,21.9,13,47.9,13s47.1-5.8,47.8-13h0V123.3C188.4,115.3,176.2,109.6,176.2,105.1Z" fill="none" stroke="#4f4f4f" stroke-miterlimit="10" stroke-width="8"/><path d="M168.1,156.3c.6,13.8-8.8,19.9-19.6,19.9s-19.6-5.6-19.6-19.2c0-9.7,8.8-15.9,19.6-15.9S167.7,146.6,168.1,156.3Z" fill="#e5d993"/><path d="M164.6,143.1c-7.1,0-15.5,4.5-16.5,7.9s.8,6.2-5.5,5.7-14.1,3.1-15,6.2-3.4,8-1.2,9.5,13.7,4,18.2,1.7,8-9.5,9.6-10.6,9.7-1.8,12.4-4.2,3.7-11.9,3.1-13.4S167.9,143.1,164.6,143.1Z" fill="#a89260"/><g opacity="0.16"><path d="M164.6,154.5c-1.1,1.5-6.7,4.2-8.6,4.6s-4.4.2-5,1.2-1.6,4.4-3,6.3-5.8,3.9-8.3,4.4a58.8,58.8,0,0,1-10.3.3,4.3,4.3,0,0,1-3.7-2.9c-.4,1.7-.4,3.2.6,4s13.8,4,18.3,1.7,7.9-9.5,9.5-10.6,9.7-1.8,12.5-4.2,3.5-10.4,3.2-12.9C169.1,149.5,165.5,153.4,164.6,154.5Z"/></g></svg>