<svg xmlns="http://www.w3.org/2000/svg" width="231.2" height="180.3" viewBox="0 0 231.2 180.3"><title>Rat</title><circle cx="118.2" cy="88" r="88" fill="#a9d0cc"/><path d="M202.2,151l2.3.3,2.1.3,4.1.8a83.4,83.4,0,0,1,8.3,2,75.5,75.5,0,0,1,16.5,6.5,34.6,34.6,0,0,1,8.2,6,22.8,22.8,0,0,1,3.6,4.6,18.5,18.5,0,0,1,2.9,9.4c0,1,0,2.1-.1,3.1a24.1,24.1,0,0,1-1.6,6,18.8,18.8,0,0,1-3.1,5.1,24,24,0,0,1-3.8,4,41.5,41.5,0,0,1-8.3,5.2,73.4,73.4,0,0,1-8.2,3.2,116.4,116.4,0,0,1-16.5,3.9,268.9,268.9,0,0,1-32.4,2.8c-10.7.3-21.4.1-32-.3l-8-.4-8-.5c-5.4-.5-10.7-1-16-1.8s-10.5-1.5-15.7-2.4l-7.9-1.4-7.8-1.6c-10.4-2.1-20.7-4.5-30.9-7.4,21.1,1.9,42.1,3.9,63.1,4.9l15.6.6h7.8l7.9-.2c10.5-.2,20.9-.7,31.3-1.6a238.2,238.2,0,0,0,30.5-4.3,89.3,89.3,0,0,0,14.3-4,39.1,39.1,0,0,0,6.3-2.8,21,21,0,0,0,5-3.4,6.9,6.9,0,0,0,1.6-1.8,9.5,9.5,0,0,0,1-1.7,4.7,4.7,0,0,0,.3-1.7v-.8c0-.2-.1-.4-.1-.6l-.6-1.2-1.4-1.5a21.3,21.3,0,0,0-4.7-3.1,60.2,60.2,0,0,0-13.1-4.7l-7.1-1.5-3.7-.6-1.8-.3-1.7-.2Z" transform="translate(-19 -34.1)" fill="#4f4f4f"/><path d="M201.7,156a107.5,107.5,0,0,1,14.8,2.9,81.8,81.8,0,0,1,14.4,5,36.2,36.2,0,0,1,6.8,4.1,22.8,22.8,0,0,1,5.8,6.2,14.3,14.3,0,0,1,1.7,4.3,11.9,11.9,0,0,1,.3,4.6,16.5,16.5,0,0,1-1,4.4,21.4,21.4,0,0,1-2,4,27.5,27.5,0,0,1-6,5.8,41.4,41.4,0,0,1-6.8,3.9,93.6,93.6,0,0,1-14.4,4.8,204.7,204.7,0,0,1-29.3,4.2c-9.8.7-19.6,1-29.4,1s-19.6-.3-29.3-1-19.5-1.9-29.2-3.3-19.3-3-28.8-5.2c9.7,1.2,19.4,2.1,29.1,3s19.4,1.3,29.1,1.7a451.4,451.4,0,0,0,58.1-1.4,194.3,194.3,0,0,0,28.3-4.7,77.5,77.5,0,0,0,13.3-4.6c4.1-2,8-4.5,10.2-7.8a12.3,12.3,0,0,0,1.2-2.6,13.1,13.1,0,0,0,.6-2.7,8.3,8.3,0,0,0-1.3-5.1,14,14,0,0,0-4.1-4.3,36.8,36.8,0,0,0-5.8-3.4,81.8,81.8,0,0,0-13.2-4.4,106.3,106.3,0,0,0-13.9-2.5Z" transform="translate(-19 -34.1)" fill="#e9baba"/><path d="M37.3,156a36.9,36.9,0,0,0-8.1-.6l-8.1.8c2.7-.5,5.4-1,8.1-1.3a28.2,28.2,0,0,1,4.1-.2l4.2.3Z" transform="translate(-19 -34.1)" fill="#636363"/><path d="M37.1,157.9a17.7,17.7,0,0,0-4.6,0,23.4,23.4,0,0,0-4.5.7L19,161l8.8-2.9a37.8,37.8,0,0,1,4.6-1,25,25,0,0,1,4.7-.2Z" transform="translate(-19 -34.1)" fill="#636363"/><path d="M36.8,160.1l-4.5.8a21.9,21.9,0,0,0-4.3,1.5,15.9,15.9,0,0,1,4.2-1.9,38.1,38.1,0,0,1,4.5-1.3Z" transform="translate(-19 -34.1)" fill="#636363"/><path d="M106.5,86.8s22-13.6,33.8-12.8,34.5,5,43,17.2,15.4,25.4,17.4,41.8,3.6,18,3.6,18-3.5,4.3-3.7,8-.2,6.7.2,8-15.4,12.3-26.9,13.5-24.1,2.7-31.9-5.1-18.8-11.9-26.1-11.2-17,7.1-22.1,8.5-27,2.2-27,2.2-6.3,6.1-12.1,4.4-10.2-3.1-10.2-5.5.7-8.2,6.2-7.9A64.3,64.3,0,0,1,63.1,168L74,162.7l-6.6-3.6-18.2,6.3L46,166l1-4.1-2.5-2.3-4.8.2-2.3-.8s.1-17.1,2.2-26.5,5.7-19.3,9.5-22.8S60,99,67.1,99.1s6.7-3.9,6.7-3.9,4-6,8.9-5.1a11.1,11.1,0,0,1,8.4,6.1c1.1,2.2,2,1.3,2,1.3Z" transform="translate(-19 -34.1)" fill="#b1b0ac"/><path d="M77.8,114.3s-3.7-4-2.1-11.8,8-7.2,9.3-6.3,4.4,3.3,2.4,9.2a19.8,19.8,0,0,1-6.4,9.4A2.6,2.6,0,0,1,77.8,114.3Z" transform="translate(-19 -34.1)" fill="#f1cbcb"/><path d="M79.4,101.8c2.7-3.8,5.8-3.5,6.6-3.2a4.2,4.2,0,0,1,1.8,1.4A6,6,0,0,0,85,96.2c-1.4-.9-7.8-1.5-9.4,6.3s2.2,11.8,2.2,11.8S76.7,105.5,79.4,101.8Z" transform="translate(-19 -34.1)" fill="#e9baba" fill-rule="evenodd"/><path d="M62.8,169.2s3.2,2,2.7,4.6-4.4,4.9-4.4,4.9l-7.9.3L46,177l-1.5-4.5,1.5-4.4,3.9-1.8,7.6,1Z" transform="translate(-19 -34.1)" fill="#e9baba"/><polygon points="131.4 146.9 130.3 150.1 115 156.8 104.3 159.1 94.5 158.2 91 156.3 91.4 153.5 93.9 151.4 109.1 147.9 120.3 145.3 122.3 141.9 127.2 144.5 131.4 146.9" fill="#e9baba"/><polygon points="117 137.6 115.8 141.4 111.2 143.8 94.2 144.7 76.8 143 77.1 140.6 80.4 137.7 97.6 137.2 106.2 137.2 107.1 133.2 113.1 134.3 117 137.6" fill="#e9baba"/><path d="M45.3,167.5l-7.8-1.9-2.3,3.6,4.4,3,.3,4.8a57.8,57.8,0,0,0,5.7-1.2c0-.1-1.6-4-1.6-4Z" transform="translate(-19 -34.1)" fill="#e9e08a" fill-rule="evenodd"/><path d="M45.3,159.9s-6.8-.3-7.3,0-1.8,1.3-1.6,2.5.7,3.3,3.3,4.1,5.3,1.4,5.9.5,1.2-5,1.1-6S45.3,159.9,45.3,159.9Z" transform="translate(-19 -34.1)" fill="#e9baba" fill-rule="evenodd"/><polygon points="50.5 125 52.8 129.2 44.2 133.2 35.9 132.2 50.3 124.5 50.5 125" fill="#888784"/><path d="M60,102.1s-6.6-11.4-8.6-10.9-4.5,1.9-4.3,4.5,1,14.2,2,14,5.8-5.7,7.4-6.3Z" transform="translate(-19 -34.1)" fill="#888784"/><path d="M88,142.3,84,155l-6.9,5.7-5.3,2.5-3-5.4s8.3-5.6,11.7-8.4A100.1,100.1,0,0,0,88,142.3Z" transform="translate(-19 -34.1)" fill="#d2d2d2"/><path d="M102.4,168.8c1.8-.2,5.4-5.9,12.9-11s10.5-3.5,10.5-3.5,4,9.7,5.9,12a36.2,36.2,0,0,1,2.3,3s-8.5-4.3-15.7-4.1S102.4,168.8,102.4,168.8Z" transform="translate(-19 -34.1)" fill="#d2d2d2"/><circle cx="39.1" cy="101.1" r="2.5" fill="#fff"/><path d="M74.9,115.5a21.2,21.2,0,0,1-4.5-7.3,17.2,17.2,0,0,1-.7-9,12.3,12.3,0,0,1,1.7-4.5,13.7,13.7,0,0,1,1.3-2l.8-.9.8-.8.9-.8,1-.8.5-.3.6-.3,1.2-.6a11.9,11.9,0,0,1,5.3-.6,10.9,10.9,0,0,1,4.8,2.1,13.5,13.5,0,0,1,3.3,3.8,12.5,12.5,0,0,1,1.6,4.7,4.9,4.9,0,0,1,.1,1.2v1.2a17.9,17.9,0,0,1-.2,2.3,15.6,15.6,0,0,1-3.6,8.2,24.8,24.8,0,0,1-6.6,5.5l-.7-.9a37.4,37.4,0,0,0,4.8-6.3,15.3,15.3,0,0,0,2-7v-1.9c0-.3-.1-.5-.1-.8a2.2,2.2,0,0,0-.1-.8,8.1,8.1,0,0,0-1.3-3A7.4,7.4,0,0,0,83,92.6a6.7,6.7,0,0,0-2.8.3,9.5,9.5,0,0,0-2.7,1.7l-.7.5-.5.7a6.9,6.9,0,0,0-1.1,1.3,11.1,11.1,0,0,0-1.5,3.1,14.6,14.6,0,0,0-.3,7.2,27.9,27.9,0,0,0,2.4,7.4Z" transform="translate(-19 -34.1)" fill="#4f4f4f"/><path d="M45.9,163.4a37.8,37.8,0,0,0,12.8-2.9,60.9,60.9,0,0,0,11.8-6.3,109.3,109.3,0,0,0,11-8.3l10.8-9,.8.7a97.2,97.2,0,0,1-8.9,11.2,95.7,95.7,0,0,1-10.8,9.4,57.3,57.3,0,0,1-12.7,7.3,41,41,0,0,1-14.6,3Z" transform="translate(-19 -34.1)" fill="#4f4f4f"/><path d="M71.8,99.1s-16.6-1.6-26.3,16.7-7.9,40-7.9,44.6" transform="translate(-19 -34.1)" fill="none" stroke="#4f4f4f" stroke-miterlimit="10" stroke-width="5.01"/><path d="M89.7,97.3a94.4,94.4,0,0,1,8.1-7.2,105.6,105.6,0,0,1,8.7-6.2,82.5,82.5,0,0,1,19.3-9.5,53.4,53.4,0,0,1,21.7-2.7,33.1,33.1,0,0,1,5.5.8l5.2,1.4a73.5,73.5,0,0,1,10.2,3.8,54.6,54.6,0,0,1,17.7,12.8,57.4,57.4,0,0,1,11,18.8,100,100,0,0,1,3,10.3l2.4,10.3c1.6,6.9,3,13.7,4.3,20.7l.2,1.1-.8.9a20.5,20.5,0,0,0-2,3.1,7.7,7.7,0,0,0-.7,1.6,4.1,4.1,0,0,0-.3,1.6,25.5,25.5,0,0,0-.2,3.9,26.9,26.9,0,0,0,.3,4V168l-.9.8h0a43.5,43.5,0,0,1-4.1,3.4c-1.4,1.1-2.8,2-4.3,3a62.3,62.3,0,0,1-9.2,4.9c-1.6.6-3.2,1.3-4.9,1.8a46.7,46.7,0,0,1-5,1.4,52.1,52.1,0,0,1-10.5,1.4,40.8,40.8,0,0,1-20.8-4.7,39.1,39.1,0,0,1-15.1-15.1,42.1,42.1,0,0,1-5-20.6,60.2,60.2,0,0,1,1.1-10.4l.6-2.7c.3-.8.6-1.7,1-2.6a32,32,0,0,1,2.6-4.8,33.7,33.7,0,0,1,16.3-13.2,26.1,26.1,0,0,1,10.4-1.6,21.3,21.3,0,0,1,9.8,3.1l-.3.6a22.1,22.1,0,0,0-9.5-1.2,23.3,23.3,0,0,0-9,2.5,34,34,0,0,0-7.7,5.3,31.1,31.1,0,0,0-5.8,7.2,22.2,22.2,0,0,0-2,4.1,16.2,16.2,0,0,0-1.2,4.3,49,49,0,0,0-.8,9.4,37.2,37.2,0,0,0,4.6,17.8,32.6,32.6,0,0,0,12.9,12.6,33.9,33.9,0,0,0,17.7,4,41.5,41.5,0,0,0,9.3-1.1,68.3,68.3,0,0,0,9.1-2.7,53.1,53.1,0,0,0,8.6-4.3l4-2.6,3.7-2.8h0l-.8,2.1c-.1-1.5-.2-3-.2-4.5a35.7,35.7,0,0,1,.1-4.6,11.4,11.4,0,0,1,.6-2.5,16,16,0,0,1,1-2.3,17.6,17.6,0,0,1,2.7-4l-.6,2q-1.8-10.2-4.2-20.4l-2.4-10.2c-.8-3.3-1.7-6.6-2.8-9.8a51.7,51.7,0,0,0-10-17.1,50.1,50.1,0,0,0-16.1-11.7,83.4,83.4,0,0,0-9.5-3.5l-4.9-1.3a38.5,38.5,0,0,0-4.9-.8,50.2,50.2,0,0,0-19.6,2.5,79.1,79.1,0,0,0-18.2,9,79.3,79.3,0,0,0-8.3,6,95.8,95.8,0,0,0-7.6,6.7Z" transform="translate(-19 -34.1)" fill="#4f4f4f"/><path d="M134.1,171.3a77.6,77.6,0,0,0-8.2-2.5,42.8,42.8,0,0,0-8.1-1.3H116l-1.8.3-3.9,1.3-8.1,3.2c-2.8,1.1-5.5,2.2-8.5,3.1a33.1,33.1,0,0,1-4.5,1.2l-2.4.4H84.5c-6,.4-11.8.4-17.7.4l2-1h0l-.6.7-.6.5a4,4,0,0,1-1.2,1,22.6,22.6,0,0,1-2.6,1.6,18.5,18.5,0,0,1-5.7,1.5,17.5,17.5,0,0,1-11.4-2.5,11.6,11.6,0,0,1-4.3-5,12.9,12.9,0,0,1-.4-1.9,6.7,6.7,0,0,1,0-2,6.1,6.1,0,0,1,1.7-3.4,10.4,10.4,0,0,1,5.6-3.3,13.5,13.5,0,0,1,6-.2l1.5.4,1.2.3,2.5.8,2.4.7h-.2l1.1-.5a93,93,0,0,0,9-4.3,22.2,22.2,0,0,0,4.2-2.5l4-3,3.9-3.1c1.3-1,2.5-2.1,3.7-3.2l.9.4a19.5,19.5,0,0,1-2.8,4.6,42.6,42.6,0,0,1-3.5,3.8l-3.9,3.4a35.2,35.2,0,0,1-4.5,3,88.2,88.2,0,0,1-9.1,4.8l-1.2.6H63.3a.5.5,0,0,1-.5,0h-1l-2.4-.6-2.5-.6-1.2-.3-1-.2a9,9,0,0,0-4,.2,5.5,5.5,0,0,0-3.1,1.8,3.1,3.1,0,0,0-.5,1v.6a1.4,1.4,0,0,0,.2.6,5.4,5.4,0,0,0,2.2,2.5,12.5,12.5,0,0,0,8,1.6,11.3,11.3,0,0,0,4.1-1.1,8.1,8.1,0,0,0,1.8-1l.8-.6.3-.3.2-.2h0l2.1-1c5.8,0,11.7,0,17.4-.4h3.1l1-.2a27.9,27.9,0,0,0,3.9-1c2.7-.8,5.4-1.9,8.1-3l8.2-3.2a45.6,45.6,0,0,1,4.4-1.4,10.9,10.9,0,0,1,2.6-.5H118a41,41,0,0,1,9.2,1.4,72.5,72.5,0,0,1,8.7,2.7Z" transform="translate(-19 -34.1)" fill="#4f4f4f"/><path d="M140.5,174.3s.7,3.7-1.2,5.1-19.6,3.7-24.9,5.5-5.7,5.7-1.5,7.2,8.4,2.3,19-1.1,16.5-6.2,17.4-6.8,1.1-4.5,1.1-4.5" transform="translate(-19 -34.1)" fill="none" stroke="#4f4f4f" stroke-miterlimit="10" stroke-width="3"/><path d="M126.2,166.2s-.5,5-1.3,5.2-24.2,0-25.9.4-5.2,4.5-2,5.5,23.8,2,29.6,1.2,7.9-2.3,8.3-3.5a26.6,26.6,0,0,0,1-4.9" transform="translate(-19 -34.1)" fill="none" stroke="#4f4f4f" stroke-miterlimit="10" stroke-width="3"/><path d="M38.4,165.4s-4,3.7-3.7,4.1,3.9,1.9,4.2,2.3.3,4.7.7,5.1,7.3-1,7.3-1" transform="translate(-19 -34.1)" fill="none" stroke="#4f4f4f" stroke-miterlimit="10" stroke-width="3"/><line x1="49.8" y1="123.8" x2="53.1" y2="129.6" fill="none" stroke="#4f4f4f" stroke-miterlimit="10" stroke-width="3"/><path d="M59.6,101.7s-1.7-1.9-4.8-6.1c-1.7-2.3-4.9-8.7-7,.1s1.8,14,1.8,14" transform="translate(-19 -34.1)" fill="none" stroke="#4f4f4f" stroke-miterlimit="10" stroke-width="5"/><path d="M39.6,159.7c-2.4.8-4.6,1.5-3.2,3.9s7.1,4.1,8.5,3.5,2.3-4.5,1.3-6.3S41.8,159,39.6,159.7Z" transform="translate(-19 -34.1)" fill="none" stroke="#4f4f4f" stroke-miterlimit="10" stroke-width="3"/><path d="M76.9,113a17.2,17.2,0,0,1-2.3-6.2,11,11,0,0,1,.9-6.7,11.5,11.5,0,0,1,2-2.9,7.3,7.3,0,0,1,3-1.9,5,5,0,0,1,3.6.1,5.3,5.3,0,0,1,2.5,2.2,6,6,0,0,0-2.8-1.3,5,5,0,0,0-2.7.4,7.9,7.9,0,0,0-2.2,1.8,13.2,13.2,0,0,0-1.6,2.5l-.6,1.3-.3,1.5a14.2,14.2,0,0,0-.2,3A45.3,45.3,0,0,0,76.9,113Z" transform="translate(-19 -34.1)" fill="#4f4f4f"/><path d="M63.5,130.9a4.6,4.6,0,0,0-2.8-1.7,5.2,5.2,0,0,0-6.2,4,1.3,1.3,0,0,0-.1.6c-.3,2.7.2,4.9,1.7,5.5s4.4,0,6.9-2.7S64.5,132.3,63.5,130.9Zm-5.6,5.3a1.3,1.3,0,1,1,0-2.6,1.3,1.3,0,0,1,1.3,1.3h0A1.3,1.3,0,0,1,57.9,136.2Z" transform="translate(-19 -34.1)" fill="#4f4f4f"/><polygon points="34.3 137.2 26 136.2 26.5 134.2 34.3 137.2" fill="#4f4f4f"/><polygon points="34 140.4 26.3 141.4 26.3 139.4 34 140.4" fill="#4f4f4f"/><path d="M116,193.1a5.5,5.5,0,0,1,1.2-3.5,4.2,4.2,0,0,1,1.5-1.1l1.7-.6a27.4,27.4,0,0,1,7-.3,22.2,22.2,0,0,0-6.8.8l-1.6.7a2.9,2.9,0,0,0-1.2,1,6.1,6.1,0,0,0-.8,3Z" transform="translate(-19 -34.1)" fill="#4f4f4f"/><path d="M109.9,190.6a7.6,7.6,0,0,1,2.4-2.3,7.9,7.9,0,0,1,3-1.2l3.1-.5,3.1-.2-3.1.5-3,.6a8.2,8.2,0,0,0-2.6,1.4,5.7,5.7,0,0,0-1.9,2.2Z" transform="translate(-19 -34.1)" fill="#4f4f4f"/><path d="M95.4,175.1a6.3,6.3,0,0,1,3.2-1.5h1.8l1.7.2,6.6,1-6.7-.5h-1.6a2.9,2.9,0,0,0-1.6.1,4.9,4.9,0,0,0-2.7,1.5Z" transform="translate(-19 -34.1)" fill="#4f4f4f"/><path d="M49.2,157.3a83.9,83.9,0,0,1,9.9-1.3,41.9,41.9,0,0,1,10,.3c3.3.7,6.5,1.5,9.7,2.5s6.3,2,9.4,3c-3.1-1-6.3-2-9.5-2.8s-6.4-1.6-9.7-2.2a45.9,45.9,0,0,0-9.8-.1c-3.3.4-6.6.9-9.8,1.5Z" transform="translate(-19 -34.1)" fill="#636363"/><path d="M52.6,159.3a57.8,57.8,0,0,1,9.3.2,31.6,31.6,0,0,1,9.1,2,91.1,91.1,0,0,1,8.6,3.5q4.2,1.8,8.4,3.9l-8.5-3.7c-2.9-1.2-5.7-2.3-8.7-3.3a38.7,38.7,0,0,0-9-1.7,69.1,69.1,0,0,0-9.1.2Z" transform="translate(-19 -34.1)" fill="#636363"/><path d="M51.9,161.6l6.6,1c2.2.4,4.4,1,6.5,1.6a41.1,41.1,0,0,1,6,2.8l5.7,3.4c-1.9-1.1-3.8-2.2-5.8-3.2a46,46,0,0,0-6.1-2.5,48.4,48.4,0,0,0-6.4-1.3c-2.2-.4-4.4-.6-6.6-.8Z" transform="translate(-19 -34.1)" fill="#636363"/></svg>