<svg xmlns="http://www.w3.org/2000/svg" width="274.7" height="246.6" viewBox="0 0 274.7 246.6"><title>SomethingElse</title><polygon points="103.3 24.5 100 43.1 74.7 26.7 80.1 49.5 58.5 32.4 58.5 54.9 34.3 58.3 57.4 82.8 29.8 92.5 40.8 112.2 23.3 135.3 52.4 141.6 26.4 169.3 58.5 165 47.1 177.7 72.2 174 63.6 199.7 92.7 193.9 94.5 216.1 117.5 207.6 132 225 142.9 207.6 165.1 220.9 170.8 202 182.9 207.6 182.9 201 198.9 201.7 196.5 192.6 215.8 192.6 206.9 174.3 233.6 169.1 223 157.3 240.9 155.1 224 141.6 251.4 133.1 234.8 117 246.7 107.6 221.8 98.8 239.8 80.7 220.2 75.9 227 64.5 209.2 68.4 220.2 45 195.3 48.1 201.5 33.8 181.4 36.9 173.9 21.7 153 38 137.4 23.4 130 43.4 103.3 24.5" fill="#fa0000"/><polygon points="94 100.5 49 64.7 74.1 65 67.5 45.6 89.6 69.6 87.8 45.1 104.6 59.3 107.6 38 120.7 56.2 136.9 40.2 139 62.1 171.7 32.4 174.4 46.9 191 43.6 179.1 58.2 212.6 50.4 184.8 83.4 207.9 73.1 198.1 85.5 227.5 84.8 198.8 106.5 236.7 107.8 217.6 115.1 235.9 129.6 189.1 134 206.1 145.2 196.8 147 209.4 160.4 184.7 155 200.6 185.7 177.6 178.8 184.1 191.9 163.6 181.4 160.7 211.8 136.1 180 135.4 204.7 129.7 186 102.5 206.5 110.2 179.1 72.4 189.1 91.7 158.4 77.7 160.8 85.4 153.5 48.1 160.5 77.5 136.1 38.1 128.1 53.9 116.1 43.8 101.7 72.2 107.6 62.6 93.3 94 100.5" fill="#32c7e5"/><polygon points="124.8 99.3 110.8 49.5 121.7 70.5 127 58.5 137.6 83.5 160.5 49.5 155 69.8 174 63.5 163.6 80.8 197.4 59.2 163.4 98.6 198.7 96.4 177.6 110.6 223.2 127.5 171.8 126.6 194.7 148.6 173.9 147.4 186.7 173.8 159.7 161.4 157.7 202 134.4 162.1 116.6 185.1 124 162.4 81.1 178.8 110.9 142.1 62.6 154 99.9 131.8 48.9 125.2 70.1 120.6 56.2 109 93.6 119.6 81.5 104.3 108.8 105.8 63.6 69.7 95.5 81 98.2 63.4 124.8 99.3" fill="#c9eef7"/><polygon points="116.3 112.8 101.1 85.4 117.9 96 113.2 77 126.7 85.2 133.2 65.3 139.3 96 151.7 76.2 152 87.7 166.5 81.2 150.2 99.7 185.3 91.3 164.1 107 189.7 109.4 161.2 119.8 182.8 132.3 163.5 132.2 176.2 158.3 152.9 144.9 154.1 157.7 143.9 146.3 144.4 176.6 130.9 143.2 124.3 155.8 126.5 138.3 105.3 153 122.8 129.7 87.1 134.3 108.3 123.6 99.8 113 116.3 112.8" fill="#fff"/><g opacity="0.34"><polygon points="92.7 80.7 88 85.6 101 112.7 128.5 114.1 133.3 109 105.4 107.6 92.7 80.7"/><polygon points="138.1 101.2 140.5 101.2 141.9 105.5 146.9 101.9 145.5 96.3 138.2 96.3 138.1 101.2"/><polygon points="123.2 120.2 118.7 125.1 115 159 117.3 159 120.3 155.9 133.9 155 119.6 154 123.2 120.2"/><polygon points="115.3 160.9 110.8 165.6 123.3 194.3 158 188.3 162.8 183.3 127.8 189.4 115.3 160.9"/></g><polygon points="97.5 75.9 92.7 80.7 105.4 107.6 133.3 109 138 104 136.4 103 122.1 102.3 111.1 101.9 107.7 94.6 104.5 88.1 99.3 76.6 97.5 75.9" fill="#00407d"/><polygon points="138.2 96.3 145.5 96.3 146.9 101.9 152.1 98.1 152.9 96.7 150.4 91 147.6 90.5 138 90.6 137 95 138.2 96.3" fill="#00407d"/><polygon points="127.8 115.6 123.2 120.2 119.6 154 135.4 155.1 155.2 154.1 156.6 151.9 154.7 150.7 133.8 149.6 125.3 149.1 127.8 129.8 128.6 116.1 127.8 115.6" fill="#00407d"/><polygon points="120.3 155.9 115.3 160.9 127.8 189.4 162.8 183.3 167.3 178.3 165.9 177.6 137.8 183 133 183.3 129 173.8 121.6 156.5 120.3 155.9" fill="#00407d"/><polygon points="97.5 75.9 122.7 61.9 178.3 74 181.3 106.4 157.8 126.8 156.6 151.9 124.5 149.5 127.8 115.6 152.1 98.1 150 91.6 138.3 91 138 104 110.4 102.8 97.5 75.9" fill="#ffca00"/><polygon points="157.8 154 120.3 155.9 132.6 184.6 167.3 178.3 157.8 154" fill="#ffca00"/><polygon points="103.7 78.9 119.6 70.2 169.9 80.6 172.5 108 176.2 105.1 173.3 76.9 123 66.6 102.9 77.5 103.7 78.9" fill="#cfa000"/><polygon points="133.9 86.5 130.1 90.2 130.1 98.8 133.9 98.8 133.9 86.5" fill="#cfa000"/><polygon points="158.9 100.4 154.8 104.6 133.3 119.2 133.5 117.6 158.9 100.4" fill="#cfa000"/><polygon points="152.5 124.1 148.8 127.7 148.3 146.2 151.8 146.6 152.5 124.1" fill="#cfa000"/><polygon points="156.2 175.6 150.9 163 128.8 163.7 127.3 160.3 154.7 159.4 160.6 174.9 156.2 175.6" fill="#cfa000"/><path d="M178.3,74.4,122.7,62.3l-25.2,14,13,26.9,27.5,1.2.4-13L150,92l2.1,6.5-24.3,17.4-3.3,34,32.1,2.4,1.2-25.1,23.6-20.4Zm-25.8,50-.7,22.4-21.2-2,2.9-27,25.4-17.2-5-14.2-20,.3V99.1H114.5L102.9,77.8,123,66.9l50.3,10.4,2.9,28.1Z" transform="translate(0 -0.3)" fill="#2363b4"/><path d="M157.8,154.3l-37.5,1.9,12.2,28.7,34.8-6.3Zm-30.5,6.4,27.3-1,6,15.5-25,3.9Z" transform="translate(0 -0.3)" fill="#2363b4"/><rect width="274.7" height="246.65" fill="none"/></svg>