<svg xmlns="http://www.w3.org/2000/svg" width="191.4" height="179.9" viewBox="0 0 191.4 179.9"><title>Weasel</title><circle cx="93.6" cy="88" r="88" fill="#ddbab6"/><path d="M95.2,120.2l-4.9,18.2,10,14.7,6.2,24.5-1,7.1-14.6-1.5-13.1-2-12.5-8.4L52.1,159.2,48.3,138l8.2-17.7,10.8-6.5,14.1-1.5Z" transform="translate(-41.3 -33.9)" fill="#d6cbc4"/><path d="M101.2,90.1l-4.2.3L86.7,96l11,12.3c.2.3,6.1-7.8,6.1-7.8V95l-.6-3.3Z" transform="translate(-41.3 -33.9)" fill="#9b806a"/><path d="M76.2,122.9c-2.6-.8-6.1,0-5.8,1.4s1.9,2.6,4.2,3.1,5.5.2,5.5-1S78.4,123.7,76.2,122.9Z" transform="translate(-41.3 -33.9)" fill="#b79d84"/><path d="M85.7,131.9A43.8,43.8,0,0,0,89,146.2c3,7,7.6,17,8.1,24.6s-.1,12,0,14.8,6,10.5,6,10.5l16.8-11.4,21.5-.3,3.6-.9h3.5l5-1.5H168l16.4,10.4,4.6.8-3.5,5.2-3.4,5.2,3.9,6,8.6.9,5.6-2.1,2.8-9.5,4.9-7.7-1.4-9.2.2-10.8,1.2-16.4-4.7-6.9,6.2-2.6,13.7-13.9,5.8-12.2,1.3-11.3-2.2-11-4.4-7.6-2.1,1.4,1.1,8.7-1.5,11.2-2.3,7.8-4.2,7.4-4.8,6.1-7.8,6.5-7.9,1-9.6-3.7-10.9-.8-13.5,2.6L153,142H139l-24.6-2.1-14.3-1.6-3-3.4-1.9-4.1Z" transform="translate(-41.3 -33.9)" fill="#b79d84"/><path d="M99.5,129.4s-5.1,1.6-6.9,1.4-4.1-3-5.5-4-5.5-5.3-13.4-5.9a16,16,0,0,0-15.3,7.6c-2,3.6-7.3,18.6-7.6,21s-1.7-8.7-1.7-8.7l2.6-16.2,5-13.6,2-3.7L75,94.1l8.6-1.9,6.8,1.1,3.3,1.1,7.9,8,4.2,9.2,1.9,6.2-5.8,1.8v3.6l2.8,3.7Z" transform="translate(-41.3 -33.9)" fill="#b79d84"/><polygon points="17.9 133.9 15.6 136.8 12.6 153.1 6.8 155.4 2.2 156.4 1.6 161.5 4 165.2 14.2 165.2 20.3 163.4 21.3 158.5 23.5 154.6 28.7 148.5 30.8 144.5 17.9 133.9" fill="#9b806a"/><path d="M148,185.7l-8.4,3.8-1.3,5.9,4.9,2.8s6.3-.1,6.9.3,5.7-2,5.7-2l3-4.1.7-5.2,2.8-4.7-12.2-.7Z" transform="translate(-41.3 -33.9)" fill="#9b806a"/><circle cx="45.3" cy="78.9" r="1.9" fill="#fff"/><path d="M109.6,119.1c-1.1-1.7-7.2-.2-7.9,1.8s2.1,5.8,4,5.9S111.6,121.9,109.6,119.1Z" transform="translate(-41.3 -33.9)" fill="#e9baba" stroke="#4f4f4f" stroke-miterlimit="10" stroke-width="3"/><path d="M107.9,118.4a47.5,47.5,0,0,0-5.6-13.1C98.6,99.4,95.6,94,87.4,92.5s-17,3.8-17,3.8-15.7,7.8-18.7,34.5c-2.6,21.7,1.6,27.7,9.8,38s22.1,14.6,31.9,15.9,28.9,1.2,40.3.2,35.5-1.8,35.5-1.8" transform="translate(-41.3 -33.9)" fill="none" stroke="#4f4f4f" stroke-miterlimit="10" stroke-width="5"/><path d="M107.1,127.6a18.9,18.9,0,0,1-4,3.4,17.5,17.5,0,0,1-5,2.3,29.7,29.7,0,0,1-5.2.8,43.5,43.5,0,0,1-5.1.2,36.8,36.8,0,0,1-10.4-1.5l-2.4-1-2.3-1.4a18,18,0,0,1-3.7-3.6,32.9,32.9,0,0,0,9.1,3.2,77,77,0,0,0,9.6.3c3.2-.1,6.4-.3,9.6-.7a24.3,24.3,0,0,0,8.5-3.5Z" transform="translate(-41.3 -33.9)" fill="#4f4f4f"/><path d="M60.5,164.4c-1.3,6.9-2.6,13.8-4.2,20.7a27.6,27.6,0,0,1-.8,2.7l-.3.5v.2l-.2.3-.3.3h-.2a2.8,2.8,0,0,1-1.2.4l-1.5.2a27.4,27.4,0,0,0-5,.4,4.4,4.4,0,0,0-1.6.6v.6l-.3,1a6.9,6.9,0,0,0,.6,4l.4.5h.7a8.5,8.5,0,0,0,2.3.3,43.5,43.5,0,0,0,5.1.2,40.7,40.7,0,0,0,5-.3l1.1-.2h.1l.3-.8c.1-.4.1-.7.2-1.1l.4-2.6a7,7,0,0,1,.3-1.4,2.9,2.9,0,0,1,.2-.9l.3-.5.2-.4c1-1.6,2-2.9,3.1-4.4s4.1-5.6,6.1-8.5l3.9,3.1L68,187.6l-3.2,4v.2h0c-.1.1-.1.2-.2.4a3.6,3.6,0,0,0-.2,1.1l-.6,2.6-.3,1.3a8.7,8.7,0,0,1-.7,1.7l-.5.6-.7.4a1.7,1.7,0,0,1-1,.3l-1.4.3-5.4.2-5.4-.3-2.8-.3-.8-.3-1-.5a4.1,4.1,0,0,1-1.2-1.4,6.7,6.7,0,0,1-1-3,8.1,8.1,0,0,1,0-3.1,7.5,7.5,0,0,1,.4-1.6V190l.2-.5.7-.9A5.8,5.8,0,0,1,46,187a49.5,49.5,0,0,1,5.4-.6l1.1-.2h0l-.2.2h-.1l.6-2.3c.6-3.3,1.1-6.7,1.6-10.2s.9-6.9,1.2-10.3Z" transform="translate(-41.3 -33.9)" fill="#4f4f4f"/><path d="M97.2,175.8s4,23.3,4.4,24.4-1.4,1-2.3,2.9-1.8,7.2,4.2,8.1,10.7.2,12.1-1.5,1.2-6.5,0-7.7-2.3-.3-.9-5,5.2-24.3,5.2-24.3" transform="translate(-41.3 -33.9)" fill="#b79d84"/><path d="M97.2,175.8a105.8,105.8,0,0,1,3.7,10.8c1,3.7,2,7.4,2.8,11l.3,1.4v.2h0v.4c0,.2.1.4.1.6a2.8,2.8,0,0,1-.1.9,1.6,1.6,0,0,1-.3.9l-.2.3-.2.3a4.3,4.3,0,0,1-1,.9l-.4.3-.2.3-.3.7a3,3,0,0,0-.2,1,2.6,2.6,0,0,0,.1,1.5,1.8,1.8,0,0,0,.7,1,4.4,4.4,0,0,0,1.9.7l2.6.4h2.7a9.9,9.9,0,0,0,2.4-.3,6.2,6.2,0,0,0,1.9-.7c0-.1.1-.1.1-.2h0c.1-.2.1-.5.2-.7a7.4,7.4,0,0,0,0-2.1c0-.4-.1-.7-.1-1a6.4,6.4,0,0,0-.2-.7h.1l-.2-.2a3.9,3.9,0,0,1-1-.8,4.1,4.1,0,0,1-.7-1.1c-.1-.2-.1-.4-.2-.6a.6.6,0,0,0-.1-.4,8.5,8.5,0,0,1,.3-2.3,8.8,8.8,0,0,1,.5-1.5l.2-.7.2-.6.4-1.3c2.1-7.2,4.1-14.5,6.7-21.7h.2c-.1,3.8-.4,7.6-.8,11.4s-.9,7.6-1.6,11.4l-.3,1.4-.3,1.4-.3,1.2v.6c.1,0,.1-.1,0-.1a1.1,1.1,0,0,0-.3-.8c-.3-.2-.2-.1.1,0l.9.8h.1l.2.2.3.3a4.3,4.3,0,0,1,.4.7,6.6,6.6,0,0,1,.6,2,11,11,0,0,1,.2,1.8,13.9,13.9,0,0,1-.4,3.5,10.8,10.8,0,0,1-.8,1.9,3.1,3.1,0,0,1-.9,1.1l-1,.8a12,12,0,0,1-3.5,1.1l-3.1.3c-2,0-4.1-.1-6.1-.3a14,14,0,0,1-3.5-1,6.7,6.7,0,0,1-3-3.2,9,9,0,0,1-.8-4l.3-1.8a7,7,0,0,1,.8-2,6.5,6.5,0,0,1,1.5-1.8l.8-.6h-.1a.4.4,0,0,1-.1.3c-.1.1-.1.3-.2.5v.5c0,.1.1.2.1.3h0l-.2-.2v-.3h0l-.2-1.5a108.3,108.3,0,0,1-1.2-11.3A111.1,111.1,0,0,1,97.2,175.8Z" transform="translate(-41.3 -33.9)" fill="#4f4f4f"/><path d="M164.6,171.6c.8,1.6,1.6,3.3,2.6,4.9s1.9,3,2.9,4.4c2.1,2.9,4.4,5.3,7,6.3a30.1,30.1,0,0,0,4.9,1.4c1.7.5,3.5.8,5.3,1.2,3.5.8,7.2,1.5,10.8,2.6a38.9,38.9,0,0,1-11.3,1.3,36.4,36.4,0,0,1-5.7-.4,29.1,29.1,0,0,1-5.8-1.5,11.8,11.8,0,0,1-2.9-1.6l-1.3-1-.6-.5-.5-.6a19.1,19.1,0,0,1-3.3-5.2,25.3,25.3,0,0,1-1.8-5.5,28.9,28.9,0,0,1-.4-2.9A9.3,9.3,0,0,1,164.6,171.6Z" transform="translate(-41.3 -33.9)" fill="#4f4f4f"/><path d="M97.1,130.9a51.5,51.5,0,0,0,2.3,5.4,9.2,9.2,0,0,0,1.3,2.1l2.1,1.8,2.6,1.8,1.3,1,1.4,1.3a9.5,9.5,0,0,1,1,1.7,9.8,9.8,0,0,1,.5,1.6,19.1,19.1,0,0,1,.6,3.3,16.4,16.4,0,0,1-2.1-2.5l-1-1.1a4.1,4.1,0,0,0-1-.9l-2.6-1.2-2.9-1.5a12.1,12.1,0,0,1-3-2,9.3,9.3,0,0,1-1.4-1.4,9.1,9.1,0,0,1-1.1-1.6,27.5,27.5,0,0,1-2.8-6.3Z" transform="translate(-41.3 -33.9)" fill="#4f4f4f"/><path d="M192.2,193.5a44.6,44.6,0,0,1-4.1,5.6l-1.3,1.3-.7.7-.4.3-.2.2h-.1a1,1,0,0,0-.4.5l-.3.9a9.6,9.6,0,0,0,0,2.4l.3,1v.2h0a.2.2,0,0,0-.2-.2h0l.5.2.6.2,1.4.3,3,.5h3.1a14.2,14.2,0,0,0,2.9-.2,2.3,2.3,0,0,0,1.1-.3l.5-.3a6.6,6.6,0,0,0,.9-1.9c.2-.9.4-2,.6-3.1a14,14,0,0,1,1-3.9l.3-.5c.1-.3.2-.3.2-.5l.5-.7,1-1.4,1.8-2.7.8-1.3a3.1,3.1,0,0,0,.5-1h0v-.3a8.3,8.3,0,0,0-.4-1.5c-.7-2.2-1.2-4.5-1.7-6.8a23.1,23.1,0,0,1-.3-3.7,16.7,16.7,0,0,1,.5-3.9c.6-2.4,1.4-4.5,2-6.5a23.2,23.2,0,0,0,.8-5.8,22.9,22.9,0,0,0-1.1-5.8,27.1,27.1,0,0,0-16.9-16.5,39.4,39.4,0,0,0-12.3-1.8,37,37,0,0,0-12.4,1.5c-1.9.6-3.8,1.6-6.1,2.5a39.9,39.9,0,0,1-7,1.8,53.4,53.4,0,0,1-6.9.5h-6.8c-4.5-.1-9-.3-13.5-.7l-6.7-.5-6.7-.6c-4.5-.5-8.9-1.2-13.3-1.8l.7-5,13.2,1.7,6.6.6,6.6.5q6.6.5,13.2.6h6.5l6.4-.5a30,30,0,0,0,5.9-1.5c1.9-.8,4-1.8,6.3-2.6a34.3,34.3,0,0,1,7.1-1.4l1.7-.2h5.2a41.4,41.4,0,0,1,14,2.2,31.9,31.9,0,0,1,20,19.6,23.1,23.1,0,0,1,.4,14.7c-.6,2.3-1.5,4.3-1.9,6.3a8.4,8.4,0,0,0-.4,2.7,14.3,14.3,0,0,0,.3,2.9c.4,2.1.9,4.1,1.5,6.2.2.5.3,1.1.5,1.7v2.1c-.1.3-.1.6-.2.9l-.9,2c-.3.6-.7,1.1-1,1.6s-1.3,1.9-1.9,2.8l-.9,1.3-.5.7-.2.3h0a12.5,12.5,0,0,0-.7,2.6c-.2,1.2-.4,2.3-.7,3.5a8.4,8.4,0,0,1-2,4,6.2,6.2,0,0,1-2.2,1.5,9,9,0,0,1-2.2.6,12,12,0,0,1-3.8.3,20,20,0,0,1-3.5-.2l-3.6-.5-1.8-.5-1-.3-1.1-.5-.3-.2h-.4l-.8-.9-.4-.6-.2-.6a8.3,8.3,0,0,1-.6-2.1,10.4,10.4,0,0,1,.1-4.3,6.5,6.5,0,0,1,.8-2.2,5.7,5.7,0,0,1,1.8-2l.5-.4.6-.4,1.1-1c1.5-1.5,3-3.2,4.4-4.8Z" transform="translate(-41.3 -33.9)" fill="#4f4f4f"/><path d="M162.3,182.5l-2.8,6s-.4,3.6-1,4.5a14.9,14.9,0,0,1-8.4,5.5c-4.7,1.2-10.5-1.2-11.8-3.1s.5-4.6,1-5.5,3.3-2.5,6.1-3.1a4.2,4.2,0,0,0,3.1-3.3" transform="translate(-41.3 -33.9)" fill="none" stroke="#4f4f4f" stroke-miterlimit="10" stroke-width="3"/><path d="M92,93.9s5.6-4.9,8.7-4.1,3.2,4.5,3.1,6.5-.5,10.6-.5,10.6" transform="translate(-41.3 -33.9)" fill="none" stroke="#4f4f4f" stroke-miterlimit="10" stroke-width="3"/><polygon points="26.9 58.8 19.5 58.3 16.6 62 15.4 66.3 18.1 72.3 19.9 74.8 24.2 75.5 30.6 70.9 32.9 65.6 33.9 62.9 26.9 58.8" fill="#b79d84"/><path d="M71.7,97.6a24.3,24.3,0,0,0-6-1.7,3,3,0,0,0-3.5,2.4,6.8,6.8,0,0,0,1.1,6,34.1,34.1,0,0,0,3.7,4.8s5.7-1.9,7.2-5.5a34.3,34.3,0,0,0,1.3-3.8A11.1,11.1,0,0,0,71.7,97.6Z" transform="translate(-41.3 -33.9)" fill="#d6cbc4"/><path d="M67,109.1a17.1,17.1,0,0,0,5.9-3.6c-.7-1.4-2.2-3.8-4.1-4.7A26.7,26.7,0,0,0,62,99.3a7,7,0,0,0,1.3,5A34.1,34.1,0,0,0,67,109.1Z" transform="translate(-41.3 -33.9)" fill="#c4b8b1"/><path d="M75.9,97.5l-4.3-2a20.4,20.4,0,0,0-4.2-1.3,9,9,0,0,0-4,0l-1,.2h-.8a4.1,4.1,0,0,0-1,.9,7.5,7.5,0,0,0-1.4,3.3,9.2,9.2,0,0,0,.1,3.7c.4,1.4,1,2.8,1.5,4.1s1.3,2.8,2,4.3l-.2.2a16.6,16.6,0,0,1-3.8-3.2,13.7,13.7,0,0,1-2.9-4.2,11.5,11.5,0,0,1,1.6-10.9,7.9,7.9,0,0,1,2.7-2l.8-.2h2a13.6,13.6,0,0,1,5.3.7,14.8,14.8,0,0,1,4.4,2.5A16.5,16.5,0,0,1,76,97.3Z" transform="translate(-41.3 -33.9)" fill="#4f4f4f"/><path d="M195.5,139.9s6.2-.9,17.4-13.1a36.1,36.1,0,0,0,9.4-29.7c-2-16.7,5.7-2.3,6.8,3.4,1.7,8,2.9,19.4-7.7,32.1-6.4,7.7-9.3,10.7-16.6,16.5" transform="translate(-41.3 -33.9)" fill="none" stroke="#4f4f4f" stroke-miterlimit="10" stroke-width="5"/><path d="M87.2,109.1a4,4,0,0,0-4.6,3.2,1.9,1.9,0,0,0-.1.8c0,1.7,1.1,3,3.3,3.5s6.2,0,6.6-1.9S90.8,109.4,87.2,109.1Zm-.5,4.6a1.1,1.1,0,0,1-1.2-1.1h0a1.1,1.1,0,0,1,1-1.2h.2a1.1,1.1,0,0,1,1.1,1.1,1,1,0,0,1-1,1.2Z" transform="translate(-41.3 -33.9)" fill="#4f4f4f"/><path d="M188.8,201.3s-2.1,2-2.2,3.7.1,4.7.1,4.7" transform="translate(-41.3 -33.9)" fill="#b79d84"/><path d="M188.8,201.3a7.6,7.6,0,0,0-1.2,1.9,3.5,3.5,0,0,0-.5,2c.1,1.5.4,3,.6,4.4l-2,.2c.1-1.6.2-3.1.4-4.7a3.9,3.9,0,0,1,1.1-2.2A6.1,6.1,0,0,1,188.8,201.3Z" transform="translate(-41.3 -33.9)" fill="#4f4f4f"/><path d="M190.8,210.6a43.8,43.8,0,0,1,.4-5.1,6.5,6.5,0,0,1,.4-1.3l.7-1.1,1.6-1.8a13.9,13.9,0,0,0-1.1,2.1,4.3,4.3,0,0,0-.6,2.2,39.3,39.3,0,0,0,.6,4.8Z" transform="translate(-41.3 -33.9)" fill="#4f4f4f"/><path d="M109.7,203.2a5,5,0,0,1,1.3,1.9,5,5,0,0,1,.2,1.2l.2,1.2.5,4.6h-2l.5-4.6a16.2,16.2,0,0,0,.1-2.2A4.9,4.9,0,0,0,109.7,203.2Z" transform="translate(-41.3 -33.9)" fill="#4f4f4f"/><path d="M102.9,211.2l.9-4.1.6-2a10.7,10.7,0,0,0,.7-1.9,14.9,14.9,0,0,1-.2,2.1,14.1,14.1,0,0,0-.1,2c0,1.4,0,2.8.1,4.1Z" transform="translate(-41.3 -33.9)" fill="#4f4f4f"/><path d="M45.7,198.7c.1-.9.3-1.8.4-2.7a14.3,14.3,0,0,1,.9-2.7,2.6,2.6,0,0,1,1-1.1,2.9,2.9,0,0,1,1.3-.5H52a11.9,11.9,0,0,0-2.6.5l-1,.6a1.8,1.8,0,0,0-.6.9,20.9,20.9,0,0,0-.1,5Z" transform="translate(-41.3 -33.9)" fill="#4f4f4f"/><path d="M142,197.6a10.9,10.9,0,0,1,.7-2.4,4.5,4.5,0,0,1,1.6-2l2.1-1,2.2-.7-2,1.2a7.5,7.5,0,0,0-1.7,1.4,3.8,3.8,0,0,0-.8,1.7,13.4,13.4,0,0,0-.1,2Z" transform="translate(-41.3 -33.9)" fill="#4f4f4f"/><path d="M67.6,109.8a19.5,19.5,0,0,1-3.8-3.8,17.6,17.6,0,0,1-1.4-2.3,6.2,6.2,0,0,1-.9-2.6,6.6,6.6,0,0,1,.1-2.8,3.3,3.3,0,0,1,1.8-2.2,4.5,4.5,0,0,1,2.8-.3,10.4,10.4,0,0,1,2.5.8l-2.6-.4a5.9,5.9,0,0,0-2.3.5,2.6,2.6,0,0,0-1.3,1.8,4.9,4.9,0,0,0,0,2.4,10.6,10.6,0,0,0,2,4.6A31.1,31.1,0,0,0,67.6,109.8Z" transform="translate(-41.3 -33.9)" fill="#4f4f4f"/><polygon points="34.2 70 31.5 66.7 31.8 70.3 28.3 70.3 30.1 71.5 27.4 73 30.8 73.8 34.2 70" fill="#b79d84"/></svg>